<svg width="454" height="368" viewBox="0 0 454 368" fill="none" xmlns="http://www.w3.org/2000/svg">
<path d="M321.176 4.07759C321.984 4.2492 322.793 4.4208 323.626 4.59761C360.201 12.5078 406.176 35.0776 425.176 65.0776C421.676 70.5776 418.122 74.0776 414.758 78.1088C412.932 79.5977 411.101 81.0804 409.266 82.5581C405.852 85.3419 402.51 88.1998 399.176 91.0776C394.153 95.4049 389.076 99.6515 383.93 103.831C378.977 107.871 374.08 111.978 369.176 116.078C366.676 114.578 365.301 112.14 362.176 109.578C346.164 90.8177 322.521 80.2456 298.176 77.0776C293.401 76.7855 288.646 76.7525 283.863 76.7651C282.647 76.749 281.431 76.7329 280.178 76.7163C268.583 76.7101 257.576 78.8351 246.676 82.7651C245.969 83.0193 245.261 83.2735 244.533 83.5354C232.707 87.9656 222.548 94.6117 213.176 103.078C212.322 103.848 211.469 104.619 210.59 105.414C192.532 122.583 179.616 148.11 178.84 173.203C178.81 175.829 178.793 178.451 178.801 181.078C178.801 181.763 178.802 182.448 178.802 183.154C178.843 194.221 179.738 204.509 183.176 215.078C183.385 215.752 183.594 216.427 183.809 217.123C192.178 243.627 210.306 264.066 234.543 277.296C240.867 280.488 247.431 282.938 254.176 285.078C255.247 285.419 256.318 285.761 257.422 286.113C271.086 289.709 293.188 291.661 306.176 285.078C308.015 282.576 308.015 282.576 309.176 280.078C308.31 279.995 307.443 279.913 306.551 279.828C300.448 278.471 296.151 274.92 292.639 269.853C290.864 266.485 290.022 263.114 289.215 259.425C288.961 258.305 288.961 258.305 288.702 257.163C287.004 249.547 285.556 241.884 284.139 234.211C281.558 220.244 278.841 206.308 275.988 192.394C275.783 191.392 275.783 191.392 275.574 190.37C274.338 184.337 273.1 178.304 271.848 172.274C271.068 168.516 270.294 164.756 269.52 160.996C269.282 159.864 269.045 158.733 268.801 157.567C268.479 155.997 268.479 155.997 268.15 154.395C267.867 153.029 267.867 153.029 267.578 151.636C267.175 149.072 267.103 146.669 267.176 144.078C266.359 144.099 265.542 144.119 264.701 144.141C260.984 144.224 257.268 144.276 253.551 144.328C252.266 144.361 250.98 144.395 249.656 144.429C237.833 144.552 237.833 144.552 233.176 140.078C230.826 136.874 230.63 133.975 231.176 130.078C232.176 127.578 233.176 124.578 238.176 123.078C240.95 122.942 243.697 122.865 246.473 122.839C247.299 122.831 248.125 122.823 248.977 122.815C250.729 122.801 252.481 122.79 254.232 122.782C256.902 122.765 259.57 122.721 262.238 122.677C263.941 122.667 265.645 122.659 267.348 122.652C268.142 122.634 268.936 122.617 269.754 122.599C275.025 122.619 278.001 123.58 282.176 127.078C286.974 133.742 288.24 140.964 288.176 149.078C288.997 149.076 289.818 149.074 290.663 149.072C310.627 149.028 330.59 148.995 350.553 148.974C360.207 148.964 369.861 148.95 379.515 148.927C387.928 148.907 396.341 148.894 404.754 148.889C409.21 148.887 413.666 148.881 418.122 148.866C422.314 148.853 426.507 148.848 430.699 148.851C432.239 148.851 433.779 148.847 435.319 148.839C437.42 148.829 439.52 148.832 441.621 148.837C442.797 148.835 443.973 148.833 445.185 148.831C448.103 149.072 449.763 149.457 452.176 151.078C455.991 158.707 452.433 170.925 451.277 178.984C451.08 180.399 450.883 181.814 450.686 183.23C450.276 186.178 449.86 189.127 449.44 192.074C448.907 195.822 448.382 199.57 447.86 203.319C447.357 206.937 446.848 210.554 446.34 214.171C446.246 214.845 446.151 215.519 446.054 216.213C442.563 241.078 442.563 241.078 438.176 245.078C435.001 247.024 432.61 247.325 428.911 247.318C427.313 247.322 427.313 247.322 425.682 247.326C423.936 247.316 423.936 247.316 422.155 247.305C420.311 247.305 420.311 247.305 418.429 247.306C415.062 247.304 411.695 247.294 408.327 247.28C404.806 247.268 401.286 247.267 397.765 247.264C391.1 247.258 384.435 247.242 377.77 247.222C370.181 247.199 362.592 247.188 355.003 247.178C339.394 247.157 323.785 247.122 308.176 247.078C309.659 254.341 309.659 254.34 313.185 260.734C317.769 262.793 322.066 262.623 327.037 262.576C328.132 262.581 329.227 262.587 330.355 262.593C332.73 262.602 335.104 262.602 337.479 262.594C341.236 262.581 344.993 262.593 348.75 262.61C356.048 262.639 363.345 262.642 370.642 262.64C380.561 262.639 390.48 262.656 400.4 262.697C404.103 262.706 407.806 262.698 411.509 262.688C413.777 262.694 416.046 262.701 418.315 262.709C419.345 262.701 420.376 262.693 421.438 262.685C430.283 262.748 430.283 262.748 434.176 266.078C436.844 270.08 437.01 273.371 436.176 278.078C433.994 280.833 432.304 282.513 429.176 284.078C427.302 284.148 425.426 284.162 423.551 284.14C422.548 284.131 421.545 284.122 420.512 284.113C419.355 284.095 419.355 284.095 418.176 284.078C417.99 285.274 417.805 286.47 417.613 287.703C412.124 311.984 391.9 328.978 372.176 342.078C371.303 342.674 370.43 343.271 369.531 343.886C335.37 365.963 286.313 371.63 246.992 363.914C244.373 363.347 241.775 362.73 239.176 362.078C238.32 361.863 237.465 361.649 236.584 361.428C189.329 349.157 147.462 318.911 122.251 276.938C105.676 246.078 103.676 241.078 101.208 232.169C89.8649 232.516 78.5212 232.822 67.1758 233.078C66.4438 233.094 65.7118 233.111 64.9576 233.128C60.5304 233.224 56.1038 233.285 51.6758 233.328C50.5752 233.349 49.4746 233.37 48.3406 233.392C39.0225 233.434 39.0225 233.434 35.1758 230.078C32.8582 226.678 32.1857 224.64 32.1133 220.515C33.1823 217.057 34.2046 215.357 37.0453 213.13C41.8368 210.763 47.4323 211.226 52.668 211.152C53.9691 211.114 55.2702 211.077 56.6107 211.039C60.0528 210.94 63.495 210.871 66.938 210.807C70.4578 210.737 73.9769 210.64 77.4961 210.544C84.3889 210.362 91.282 210.21 98.1758 210.078C98.1044 209.247 98.0329 208.417 97.9593 207.561C97.4155 200.945 97.0341 194.403 97.1133 187.765C97.1178 187.013 97.1224 186.261 97.127 185.486C97.1385 183.683 97.1564 181.88 97.1758 180.078C96.6235 180.09 96.0712 180.103 95.5021 180.116C81.336 180.435 67.1696 180.714 53.002 180.957C48.6776 181.032 44.3534 181.114 40.0293 181.206C35.4754 181.301 30.9217 181.371 26.367 181.42C24.7073 181.441 23.0476 181.472 21.3882 181.512C19.0917 181.565 16.797 181.587 14.5 181.601C13.2222 181.621 11.9443 181.641 10.6277 181.661C6.04346 180.886 4.44039 179.333 1.17583 176.078C-0.0776719 173.389 -0.174609 171.013 0.175828 168.078C2.17578 163.078 3.9049 161.597 8.17583 160.078C11.1417 159.868 14.0166 159.766 16.9834 159.759C18.3157 159.744 18.3157 159.744 19.6749 159.728C22.6075 159.697 25.54 159.68 28.4727 159.664C30.5072 159.645 32.5418 159.625 34.5763 159.605C39.929 159.553 45.2818 159.514 50.6346 159.477C56.0976 159.437 61.5606 159.386 67.0235 159.335C77.7409 159.239 88.4583 159.154 99.1758 159.078C99.2678 157.854 99.2678 157.854 99.3616 156.607C99.4881 154.995 99.4881 154.995 99.6172 153.352C99.6992 152.289 99.7811 151.226 99.8655 150.131C100.263 146.222 101.102 142.733 102.176 138.953C102.526 137.692 102.877 136.431 103.238 135.132C104.176 132.078 104.176 132.078 105.176 130.078C104.362 130.089 103.549 130.1 102.711 130.111C95.0307 130.212 87.3511 130.288 79.6707 130.337C75.7224 130.363 71.7747 130.398 67.8267 130.455C64.0141 130.509 60.2021 130.539 56.3891 130.552C54.937 130.561 53.485 130.579 52.0331 130.606C39.225 130.835 39.225 130.835 35.2959 127.674C32.7488 124.555 32.1514 122.974 31.9375 119.074C32.3482 115.634 33.9327 113.624 36.1758 111.078C39.7677 108.644 43.076 108.836 47.3311 108.851C48.4 108.85 48.4 108.85 49.4905 108.85C51.8389 108.851 54.1869 108.867 56.5352 108.882C58.1662 108.886 59.7971 108.889 61.4281 108.891C65.7156 108.898 70.003 108.918 74.2905 108.94C78.6676 108.961 83.0448 108.97 87.4219 108.98C96.0066 109.001 104.591 109.035 113.176 109.078C113.47 108.16 113.764 107.243 114.067 106.298C127.111 68.4179 166.069 35.6563 200.734 18.1752C236.763 0.740211 282.048 -4.57708 321.176 4.07759Z" fill="#F76129"/>
</svg>
