<svg width="144" height="144" viewBox="0 0 144 144" fill="none" xmlns="http://www.w3.org/2000/svg">
<path d="M101.894 15.2882C102.151 15.3424 102.407 15.3966 102.672 15.4525C114.275 17.9515 128.861 25.0817 134.889 34.5593C133.778 36.2969 132.651 37.4026 131.584 38.6762C131.004 39.1465 130.423 39.615 129.841 40.0818C128.758 40.9612 127.698 41.8641 126.64 42.7733C125.047 44.1403 123.436 45.4819 121.803 46.8025C120.232 48.0787 118.678 49.3762 117.122 50.6713C116.329 50.1974 115.893 49.4274 114.902 48.6178C109.822 42.6912 102.321 39.3512 94.5974 38.3504C93.0827 38.2581 91.574 38.2477 90.0567 38.2517C89.6709 38.2466 89.285 38.2415 88.8875 38.2362C85.2089 38.2343 81.7171 38.9056 78.2588 40.1472C78.0345 40.2275 77.8101 40.3078 77.5789 40.3905C73.8272 41.7901 70.6041 43.8898 67.6308 46.5643C67.3601 46.8079 67.0894 47.0514 66.8104 47.3023C61.0814 52.7264 56.9837 60.791 56.7376 68.7182C56.728 69.548 56.7227 70.3764 56.7252 71.2061C56.7254 71.4226 56.7256 71.6391 56.7258 71.8622C56.7386 75.3585 57.0226 78.6086 58.1132 81.9474C58.1795 82.1606 58.2458 82.3738 58.3141 82.5934C60.9692 90.9668 66.7203 97.4239 74.4097 101.604C76.4161 102.612 78.4983 103.386 80.6382 104.062C80.9781 104.17 81.3179 104.278 81.6681 104.389C86.0032 105.525 93.015 106.142 97.1354 104.062C97.7188 103.272 97.7188 103.272 98.0872 102.482C97.8124 102.456 97.5376 102.43 97.2544 102.403C95.3182 101.975 93.9551 100.853 92.8407 99.2522C92.2776 98.1882 92.0106 97.123 91.7545 95.9577C91.674 95.604 91.674 95.604 91.5919 95.2431C91.0531 92.8369 90.5937 90.4162 90.1443 87.9921C89.3254 83.5797 88.4632 79.1769 87.5583 74.7812C87.4933 74.4647 87.4932 74.4647 87.4268 74.1417C87.0348 72.2358 86.642 70.3299 86.2448 68.425C85.9973 67.2375 85.7516 66.0497 85.5061 64.8618C85.4309 64.5043 85.3557 64.1469 85.2782 63.7786C85.176 63.2825 85.176 63.2825 85.0717 62.7765C84.9818 62.3451 84.9818 62.3451 84.89 61.905C84.7623 61.0948 84.7394 60.3356 84.7625 59.5171C84.5034 59.5237 84.2443 59.5303 83.9773 59.5371C82.7982 59.5635 81.6192 59.5798 80.44 59.596C80.0322 59.6066 79.6245 59.6172 79.2044 59.6281C75.4534 59.6668 75.4534 59.6668 73.9759 58.2534C73.2305 57.2411 73.1683 56.3254 73.3414 55.0942C73.6586 54.3044 73.9759 53.3566 75.5622 52.8827C76.4422 52.8399 77.3139 52.8155 78.1944 52.8075C78.4566 52.8049 78.7187 52.8024 78.9889 52.7997C79.5446 52.7954 80.1004 52.792 80.6562 52.7895C81.503 52.7841 82.3494 52.7702 83.1961 52.7562C83.7364 52.753 84.2768 52.7503 84.8171 52.7482C85.069 52.7427 85.3209 52.7372 85.5804 52.7315C87.2527 52.7379 88.1967 53.0414 89.5214 54.1464C91.0437 56.2519 91.4452 58.5333 91.4249 61.0967C91.6853 61.0961 91.9457 61.0955 92.2141 61.0949C98.5474 61.081 104.881 61.0705 111.214 61.0639C114.277 61.0607 117.34 61.0562 120.402 61.049C123.072 61.0427 125.741 61.0386 128.41 61.0372C129.823 61.0364 131.237 61.0344 132.651 61.0299C133.981 61.0256 135.311 61.0242 136.641 61.0252C137.13 61.025 137.618 61.0238 138.107 61.0213C138.773 61.0182 139.439 61.019 140.106 61.0207C140.479 61.0201 140.852 61.0195 141.237 61.0189C142.162 61.0948 142.689 61.2166 143.455 61.7285C144.665 64.1388 143.536 67.9987 143.169 70.5447C143.107 70.9917 143.044 71.4388 142.982 71.886C142.852 72.8176 142.72 73.749 142.587 74.6802C142.417 75.8641 142.251 77.0483 142.085 78.2327C141.926 79.3756 141.764 80.5184 141.603 81.6611C141.573 81.874 141.543 82.0868 141.512 82.3061C140.405 90.1614 140.405 90.1614 139.013 91.425C138.006 92.04 137.247 92.1352 136.074 92.1329C135.567 92.1342 135.567 92.1342 135.049 92.1355C134.495 92.1321 134.495 92.1321 133.93 92.1286C133.345 92.1287 133.345 92.1287 132.748 92.1289C131.68 92.1285 130.612 92.1253 129.543 92.1209C128.426 92.117 127.309 92.1166 126.192 92.1159C124.078 92.1139 121.963 92.1087 119.849 92.1024C117.441 92.0953 115.034 92.0918 112.626 92.0887C107.674 92.0821 102.722 92.0709 97.77 92.0569C98.2406 94.3514 98.2406 94.3514 99.359 96.3712C100.813 97.0217 102.177 96.9679 103.754 96.9531C104.101 96.9548 104.448 96.9566 104.806 96.9584C105.56 96.9613 106.313 96.9614 107.066 96.9588C108.258 96.9548 109.45 96.9584 110.642 96.9639C112.957 96.9732 115.273 96.9741 117.588 96.9735C120.735 96.973 123.881 96.9783 127.028 96.9912C128.203 96.9943 129.378 96.9916 130.553 96.9885C131.272 96.9904 131.992 96.9926 132.712 96.995C133.039 96.9926 133.366 96.9902 133.703 96.9877C136.509 97.0075 136.509 97.0075 137.744 98.0594C138.59 99.3238 138.643 100.363 138.378 101.85C137.686 102.721 137.15 103.252 136.158 103.746C135.563 103.768 134.968 103.773 134.373 103.766C134.055 103.763 133.737 103.76 133.409 103.757C133.042 103.752 133.042 103.752 132.668 103.746C132.609 104.124 132.55 104.502 132.489 104.891C130.748 112.562 124.332 117.931 118.074 122.069C117.797 122.258 117.52 122.446 117.235 122.641C106.397 129.615 90.8339 131.405 78.3593 128.968C77.5284 128.789 76.704 128.594 75.8794 128.388C75.608 128.32 75.3366 128.252 75.057 128.183C60.0653 124.306 46.7827 114.751 38.7844 101.491C33.526 91.741 32.8915 90.1614 32.1086 87.3471C28.51 87.4566 24.9111 87.5532 21.3118 87.634C21.0795 87.6392 20.8473 87.6444 20.608 87.6498C19.2035 87.6801 17.7991 87.6996 16.3943 87.713C16.0452 87.7197 15.696 87.7264 15.3362 87.7333C12.38 87.7464 12.38 87.7464 11.1596 86.6862C10.4244 85.6123 10.211 84.9683 10.1881 83.6652C10.5272 82.5727 10.8515 82.0357 11.7527 81.3321C13.2729 80.5844 15.0481 80.7307 16.7091 80.7072C17.1219 80.6954 17.5347 80.6836 17.9599 80.6715C19.052 80.6403 20.144 80.6183 21.2363 80.5983C22.353 80.5762 23.4694 80.5453 24.5859 80.5153C26.7727 80.4577 28.9595 80.4097 31.1466 80.3678C30.9276 77.8337 30.9488 75.3026 30.9322 72.7612C30.9271 71.9714 31.0128 71.1682 30.8139 71.0236C26.3197 71.1245 21.3098 71.0914 16.8151 71.1682C15.4431 71.1917 14.0713 71.2176 12.6994 71.2465C11.2547 71.2766 9.81002 71.2987 8.36502 71.3142C7.83846 71.3211 7.31193 71.3308 6.78547 71.3433C6.05691 71.3602 5.32891 71.3671 4.60018 71.3715C4.19477 71.3777 3.78936 71.384 3.37167 71.3905C1.91729 71.1456 1.40871 70.655 0.373017 69.6265C-0.024661 68.7772 -0.0554147 68.0266 0.0557628 67.0992C0.690256 65.5196 1.23882 65.0518 2.59379 64.5718C3.53472 64.5055 4.4468 64.4735 5.38804 64.4711C5.8107 64.4663 5.81071 64.4663 6.2419 64.4614C7.17229 64.4517 8.10264 64.4463 9.03306 64.441C9.67852 64.4351 10.324 64.4289 10.9694 64.4224C12.6676 64.4062 14.3658 64.3937 16.064 64.382C17.7972 64.3693 19.5303 64.3532 21.2634 64.3373C24.0026 64.3127 29.0988 64.2874 31.0909 64.2314C31.5715 64.2178 31.4326 63.9414 31.5667 63.9154C32.2012 60.1244 32.2012 58.2289 33.3674 55.0942C33.1093 55.0977 32.8512 55.1012 32.5853 55.1048C30.1488 55.1365 27.7125 55.1605 25.2758 55.176C24.0232 55.1842 22.7708 55.1954 21.5183 55.2133C20.3087 55.2305 19.0993 55.24 17.8896 55.244C17.429 55.247 16.9683 55.2526 16.5077 55.2612C12.4443 55.3336 12.4443 55.3336 11.1978 54.3348C10.3897 53.3494 10.2001 52.8501 10.1323 51.6178C10.2626 50.531 10.7653 49.8961 11.4769 49.0917C12.6164 48.3229 13.666 48.3835 15.016 48.3881C15.3551 48.388 15.3551 48.388 15.701 48.3878C16.4461 48.3883 17.191 48.3932 17.936 48.3981C18.4534 48.3993 18.9708 48.4002 19.4883 48.4008C20.8485 48.4033 22.2087 48.4095 23.5689 48.4165C24.9576 48.4229 26.3463 48.4258 27.7349 48.429C30.4585 48.4358 33.1819 48.4465 35.9054 48.4598C35.9987 48.17 36.092 47.8802 36.1882 47.5817C41.5602 35.4826 52.6859 25.2646 63.6838 19.7419C75.1138 14.2338 89.4809 12.554 101.894 15.2882Z" fill="#F76129"/>
</svg>
